<svg xmlns="http://www.w3.org/2000/svg" width="621.733" height="478.585" viewBox="0 0 621.733 478.585"><g transform="translate(-663 -154)"><g transform="translate(-1183 -1531)"><path d="M488.777,222.493a106.266,106.266,0,0,1,4.392,40.683,103.826,103.826,0,0,1-20.123-35.3,106.265,106.265,0,0,1-4.392-40.683A103.816,103.816,0,0,1,488.777,222.493Z" transform="translate(1593.481 1553.652)" fill="#536dfe"/><path d="M519.341,222.493a106.265,106.265,0,0,0-4.392,40.683,103.826,103.826,0,0,0,20.123-35.3,106.265,106.265,0,0,0,4.392-40.683A103.814,103.814,0,0,0,519.341,222.493Z" transform="translate(1571.702 1553.652)" fill="#536dfe"/><path d="M514.011,219.121a105.919,105.919,0,0,1-7.465,40.205,100.827,100.827,0,0,1-1.643-80.05A105.736,105.736,0,0,1,514.011,219.121Z" transform="translate(1579.758 1557.252)" fill="#3f3d56"/><ellipse cx="2.101" cy="2.164" rx="2.101" ry="2.164" transform="translate(2083.382 1754.673)" fill="#536dfe"/><ellipse cx="1.167" cy="1.202" rx="1.167" ry="1.202" transform="translate(2080.23 1772.946)" fill="#536dfe"/><ellipse cx="1.167" cy="1.202" rx="1.167" ry="1.202" transform="translate(2065.988 1761.045)" fill="#3f3d56"/><ellipse cx="1.167" cy="1.202" rx="1.167" ry="1.202" transform="translate(2107.196 1749.383)" fill="#3f3d56"/><ellipse cx="1.167" cy="1.202" rx="1.167" ry="1.202" transform="translate(2072.059 1772.345)" fill="#3f3d56"/><ellipse cx="1.167" cy="1.202" rx="1.167" ry="1.202" transform="translate(2096.573 1765.372)" fill="#3f3d56"/><ellipse cx="1.167" cy="1.202" rx="1.167" ry="1.202" transform="translate(2072.759 1790.018)" fill="#3f3d56"/><ellipse cx="1.167" cy="1.202" rx="1.167" ry="1.202" transform="translate(2097.74 1783.165)" fill="#3f3d56"/><ellipse cx="1.167" cy="1.202" rx="1.167" ry="1.202" transform="translate(2086.417 1784.367)" fill="#536dfe"/><path d="M398.707,165.089l-.268-1.056,62.63-16.846L435.01,44.438,321.8,74.89l19.313,76.148-1.025.276L320.51,74.11l115.258-31,.134.528,26.46,104.332Z" transform="translate(1695.215 1665.402)" fill="#3f3d56"/><path d="M916.681,215.732a147.629,147.629,0,0,1,6.1,56.519,144.241,144.241,0,0,1-27.956-49.041,147.629,147.629,0,0,1-6.1-56.519A144.24,144.24,0,0,1,916.681,215.732Z" transform="translate(1395.932 1562.973)" fill="#536dfe"/><path d="M959.142,215.732a147.628,147.628,0,0,0-6.1,56.519A144.241,144.241,0,0,0,981,223.211a147.63,147.63,0,0,0,6.1-56.519A144.239,144.239,0,0,0,959.142,215.732Z" transform="translate(1365.675 1562.973)" fill="#536dfe"/><path d="M951.737,211.047a147.145,147.145,0,0,1-10.37,55.855,146.9,146.9,0,0,1-12.654-55.354,147.155,147.155,0,0,1,10.37-55.855A146.905,146.905,0,0,1,951.737,211.047Z" transform="translate(1376.867 1567.974)" fill="#3f3d56"/><ellipse cx="2.919" cy="3.006" rx="2.919" ry="3.006" transform="translate(2314.173 1748.874)" fill="#536dfe"/><ellipse cx="1.622" cy="1.67" rx="1.622" ry="1.67" transform="translate(2309.794 1774.261)" fill="#536dfe"/><ellipse cx="1.622" cy="1.67" rx="1.622" ry="1.67" transform="translate(2290.009 1757.726)" fill="#3f3d56"/><ellipse cx="1.622" cy="1.67" rx="1.622" ry="1.67" transform="translate(2347.257 1741.525)" fill="#3f3d56"/><ellipse cx="1.622" cy="1.67" rx="1.622" ry="1.67" transform="translate(2298.443 1773.426)" fill="#3f3d56"/><ellipse cx="1.622" cy="1.67" rx="1.622" ry="1.67" transform="translate(2332.5 1763.739)" fill="#3f3d56"/><ellipse cx="1.622" cy="1.67" rx="1.622" ry="1.67" transform="translate(2299.415 1797.978)" fill="#3f3d56"/><ellipse cx="1.622" cy="1.67" rx="1.622" ry="1.67" transform="translate(2334.121 1788.458)" fill="#3f3d56"/><ellipse cx="1.622" cy="1.67" rx="1.622" ry="1.67" transform="translate(2318.39 1790.128)" fill="#536dfe"/><path d="M815.412,169l-.268-1.055,87.206-23.458L866.044,1.331,708.372,43.744l26.882,105.994-1.025.276-27.15-107.05L866.8,0l.138.527,36.708,144.739Z" transform="translate(1513.353 1685)" fill="#3f3d56"/><path d="M151.283,281.818a52.274,52.274,0,0,1,2.161,20.021,49.221,49.221,0,0,1-12.064-37.393A51.2,51.2,0,0,1,151.283,281.818Z" transform="translate(1747.367 1518.53)" fill="#536dfe"/><path d="M166.356,281.818a52.274,52.274,0,0,0-2.161,20.021,49.221,49.221,0,0,0,12.064-37.393,51.2,51.2,0,0,0-9.9,17.372Z" transform="translate(1736.616 1518.531)" fill="#536dfe"/><path d="M163.728,280.159a52.172,52.172,0,0,1-3.674,19.786,49.619,49.619,0,0,1-.809-39.394A52.1,52.1,0,0,1,163.728,280.159Z" transform="translate(1740.586 1520.302)" fill="#3f3d56"/><path d="M60.446,194.378l-.268-1.056,48.152-12.952L88.307,101.424,1.292,124.83,16.146,183.4l-1.025.276L0,124.05l89.065-23.957,20.557,81.057Z" transform="translate(1846 1639.494)" fill="#3f3d56"/><ellipse cx="7.075" cy="7.286" rx="7.075" ry="7.286" transform="translate(2327.205 1725.545)" fill="#536dfe"/><ellipse cx="3.773" cy="3.886" rx="3.773" ry="3.886" transform="translate(2297.961 1732.831)" fill="#3f3d56"/></g><g transform="translate(-1520 -2793.151)"><path d="M903.913,263.384c-1.48,5.241-6.551,8.488-6.551,8.488s-2.67-5.252-1.19-10.493,6.551-8.488,6.551-8.488S905.394,258.143,903.913,263.384Z" transform="translate(1391.797 3109.032)" fill="#3f3d56"/><path d="M872.13,346.78c2.823,4.709,1.634,10.439,1.634,10.439s-5.765-1.905-8.588-6.614-1.634-10.439-1.634-10.439S869.307,342.072,872.13,346.78Z" transform="translate(1412.09 3053.048)" fill="#3f3d56"/><path d="M864.282,176.735c2.823,4.709,1.634,10.439,1.634,10.439s-5.765-1.905-8.588-6.614-1.634-10.439-1.634-10.439S861.459,172.027,864.282,176.735Z" transform="translate(1417 3162.126)" fill="#3f3d56"/><path d="M886.048,243.862l-.149-.609.074.3-.076-.3a7.093,7.093,0,0,0,3.991-3.522c2.238-3.9,3.633-12.129-2.436-29.214-5.587-15.732-4.932-27.877-3.4-35.3,1.666-8.059,4.617-12.325,4.741-12.5l.542.349c-.03.043-3.013,4.365-4.651,12.312-1.511,7.337-2.151,19.354,3.383,34.935,6.159,17.339,4.688,25.75,2.369,29.752A7.56,7.56,0,0,1,886.048,243.862Z" transform="translate(1399.771 3166.874)" fill="#3f3d56"/><ellipse cx="8.16" cy="7.816" rx="8.16" ry="7.816" transform="translate(2280.68 3321.953)" fill="#536dfe"/></g><g transform="translate(683 -3082)"><line y1="96.762" transform="translate(385.432 3513.842)" fill="#3f3d56" stroke="#3f3d56" stroke-miterlimit="10" stroke-width="2"/><ellipse cx="7.068" cy="6.842" rx="7.068" ry="6.842" transform="translate(378.364 3507)" fill="#3f3d56"/><ellipse cx="7.068" cy="6.842" rx="7.068" ry="6.842" transform="translate(356.655 3561.245)" fill="#3f3d56"/><path d="M309.781,601.4s-1.01-21.022-21.709-18.578" transform="translate(75.651 2940.306)" fill="#3f3d56"/><path d="M309.781,731.618s4.544-38.681-21.709-40.636" transform="translate(75.651 2877.105)" fill="none" stroke="#3f3d56" stroke-miterlimit="10" stroke-width="2"/></g><g transform="translate(-1170 -2769.62)"><path d="M902.829,262.376c-1.284,4.738-5.684,7.672-5.684,7.672s-2.317-4.747-1.032-9.485,5.684-7.672,5.684-7.672S904.114,257.638,902.829,262.376Z" transform="translate(1389.802 3105.191)" fill="#3f3d56"/><path d="M870.96,346.145c2.449,4.256,1.418,9.435,1.418,9.435s-5-1.722-7.451-5.978-1.417-9.435-1.417-9.435S868.511,341.888,870.96,346.145Z" transform="translate(1411.701 3046.2)" fill="#3f3d56"/><path d="M863.112,176.1c2.449,4.256,1.418,9.435,1.418,9.435s-5-1.722-7.451-5.978-1.418-9.435-1.418-9.435S860.663,171.843,863.112,176.1Z" transform="translate(1417 3161.137)" fill="#3f3d56"/><path d="M885.642,236.065l-.129-.55.064.275-.066-.275a6.2,6.2,0,0,0,3.463-3.183c1.942-3.523,3.152-10.963-2.113-26.407-4.848-14.22-4.279-25.2-2.948-31.9,1.446-7.284,4.006-11.14,4.114-11.3l.47.315a33.233,33.233,0,0,0-4.035,11.129c-1.311,6.632-1.866,17.494,2.935,31.578,5.344,15.673,4.068,23.276,2.056,26.893A6.6,6.6,0,0,1,885.642,236.065Z" transform="translate(1398.407 3166.14)" fill="#3f3d56"/><ellipse cx="7.08" cy="7.065" rx="7.08" ry="7.065" transform="translate(2279.59 3321.953)" fill="#536dfe"/></g><g transform="matrix(0.996, 0.087, -0.087, 0.996, 747.93, 405.375)"><path d="M57.131,141.549c-1-12.65-2.861-56.444-1-76.715.785-8.557,1.633-16.7,2.465-23.927-17.858,32.116-47.08,79.1-47.08,79.1L0,114.744S13.566,70.05,22.247,51.638c9.91-21.017,19.2-39.015,23.112-45.355,6.151-9.971,16.86-6.492,22.518-.456C76.114.882,89.933,7.236,89.924,14.31,89.895,35.474,70.58,135.223,69.572,141.529c-.534,3.337-3.812,5.375-6.872,5.375C59.977,146.9,57.427,145.292,57.131,141.549Z" transform="translate(190.077 14.928)" fill="#b28b67"/><path d="M0,111.841,5.118,10.331c3.688-17.553,34.907-9.406,34.894,0-.029,21.355-12.857,95.127-12.866,101.489Z" transform="translate(229.152 8.029) rotate(20)" fill="#69a1ac"/><g transform="translate(199.086 100.429) rotate(30)"><path d="M4.474,5.033A2,2,0,0,0,1.908,6.381L0,13.106A64.242,64.242,0,0,0,.9,21H57.3s2.2-7.268-2.538-7.848-7.87-1.047-7.87-1.047L20.68.419a1,1,0,0,0-1.332.532L17.663,5.039s-4.385,2.046-7.127,2.046Z" transform="translate(1 19)" fill="#89c5cc"/></g><g transform="matrix(0.998, -0.07, 0.07, 0.998, 37.79, 58.255)"><g transform="translate(55)"><path d="M27.623,0h77.255L115,124H0Z" fill="#c5cfd6"/><path d="M27.623,0h23.76L65.6,124H0Z" fill="rgba(0,0,0,0.1)"/></g></g><g transform="matrix(0.996, -0.087, 0.087, 0.996, 239.528, 128.719)"><path d="M4.474,5.033A2,2,0,0,0,1.908,6.381L0,13.106A64.242,64.242,0,0,0,.9,21H57.3s2.2-7.268-2.538-7.848-7.87-1.047-7.87-1.047L20.68.419a1,1,0,0,0-1.332.532L17.663,5.039s-4.385,2.046-7.127,2.046Z" transform="translate(1 19)" fill="#89c5cc"/></g><path d="M170.77,36.433c0,26.567-12.617,88.537-12.625,94.387L131,130.841S136.96,47.9,135.227,47s-71.051,6.921-91.84,6.921C13.408,53.925,1.006,35.02,0,0H59.386c12.092,1.294,75.162,14.015,98.586,18.388C168,20.261,170.77,29.115,170.77,36.433Z" transform="translate(112 0)" fill="#89c5cc"/></g><g transform="translate(853.374 266.899) rotate(-17)"><g transform="translate(4 6.95)"><path d="M0,73,8.262,34.49C3.655,29.081.536,22.452,1.057,15.026c1.5-21.4,31.292-16.692,37.086-5.891s5.107,38.2-2.382,40.129c-2.987.77-9.349-1.116-15.825-5.019L24,73Z" fill="#dcba9a"/></g><path d="M10.418,46.308C7.406,32.906-1.175,23.771.135,17.782a10.2,10.2,0,0,1,6.986-7.45S10.057-1.543,26.056.23,51.819,8.648,47.6,23.268c-3.876,0-8.556-1.4-15.027,1-3.08,1.143-4.406,7.09-4.406,7.09H25.246s-4.257-7.057-8.4-5.187-1.881,9.087-1.881,9.087l-1.44,11.049Z" transform="translate(0 -0.05)" fill="#191847"/></g><g transform="translate(321 152)"><path d="M6.787,0,32.922,21.384A73.266,73.266,0,0,1,51.01,29.777c1.113,1.126,2.412,3.356-2.414,2.729s-9.93-1.069-10.685.549,2.073,3.748.605,5.907Q37.047,41.122,26.331,27.11L0,14.538Z" transform="translate(632.024 261.522) rotate(-3)" fill="#eec197"/><path d="M0,1.9,7.24,0C36.573,21.173,51.734,65.453,87.26,86.5L80.087,97.181C21.466,95.074,2.263,41.126,0,1.9Z" transform="matrix(0.996, 0.087, -0.087, 0.996, 575.138, 177.138)" fill="#e87613"/><path d="M0,97.274H65.286c2.983,0,2.421-4.308,1.99-6.481C62.3,65.706,42.87,38.663,42.87,2.953L24.038,0C8.462,25.051,3.076,55.894,0,97.274Z" transform="translate(542.807 174.485)" fill="#a9aaab"/><path d="M43.384,72.362S24.775,25.771,21.275,21.329c-1.711-2.172-8.429-6.594-15.465-9.5C2.985,10.663-2.647-1.446.209-1.406S16.4,8.552,20.807,8.108s-2.746-2.591-2.5-3.441,8.72-.838,13.3,12.288,29.2,51.632,29.2,51.632Z" transform="matrix(-0.914, 0.407, -0.407, -0.914, 682.619, 289.631)" fill="#dcba9a"/><path d="M15.446,118.19c2.054-30.984,13.774-65.9,25.379-92.07-6.184,1.92-13.343,2.323-16.847-4C17.1,9.7,19.581,2.863,26.937.616S40.852,3,52.572,3a9.14,9.14,0,0,1,1.4.1l6.249.357s1.329,4.5,3.241,11.792l74.351,83.6-18.667,15.333s-23.891-12.276-42.5-28.6c1.026,13.138.612,24.919-2.43,32.609Z" transform="translate(512.856 171.487)" fill="#ff9b21"/><path d="M19.287,31.184H0C4.271,20.927,9.048,7.827,14.2-7.754l8.325-22.3A225.6,225.6,0,0,0,17.31-5.471a120.7,120.7,0,0,0-1.562,20.3c.161,7.183,1.352,12.686,3.539,16.358Z" transform="translate(535.467 258.493)" fill="rgba(0,0,0,0.1)"/></g><g transform="translate(1210 522)"><path d="M0,0C0,21.287,1.68,38.544,24.228,38.544S48.456,21.287,48.456,0" transform="translate(15.418 48.456)" fill="#e58b1e"/><path d="M46.353,35.174a44.567,44.567,0,0,0-2.214,4.366,59.743,59.743,0,0,1,.606-9.228c.786-5.329,1.988-10.631,3.116-15.924.811-3.8.76-10.637,3.839-13.668.844-.655,1.047.63,1.047,1.188.011.118,0-2.277-.822-1.86-4.871,2.516-6.449,10.425-8.008,14.386a76.214,76.214,0,0,0-5.008,17.7,39.656,39.656,0,0,0-.336,4.554c-.166-.405-.321-.814-.493-1.218a82.22,82.22,0,0,0-11.337-18.96C25.578,15.054,10.934.649,9.788,2.854a1.52,1.52,0,0,0,.711.8c.021.024.022.011.009-.025.86,1.389,3.305,3.535,4.067,4.752a91.953,91.953,0,0,1,4.921,9.5c3.2,6.739,6.166,13.546,9.043,20.368.67,1.589,1.368,3.169,2.08,4.744C23.277,32.4,13.483,22.791,0,17.287c4.6,2.343,7.624,6.75,10.734,10.125,3.751,4.071,7.7,8.032,11.459,12.1,4.432,4.8,9.648,9.848,13.911,15.156,4.13,8.67,8.142,17.349,10.62,26.463-1.015-3.149-.08-7.5-.253-10.8A73,73,0,0,0,45.6,62.48a16.1,16.1,0,0,1,1.173,3.443c-.186-1.834-.4-3.656-.629-5.468.59-1.7,1.169-3.281,1.56-4.585a117.8,117.8,0,0,1,7.642-19.677A175.66,175.66,0,0,1,65.567,18.735c1.754-2.646,3.532-5.282,5.3-7.923,1.156-1.729,2.257-4.5,3.867-6.153-10.407,9.515-21.777,19.1-28.38,30.515" transform="translate(0 0)" fill="#69a1ac"/></g></g></svg>